<?xml version="1.0" encoding="UTF-8" standalone="no"?>
<svg
   xml:space="preserve"
   id="Layer_1"
   width="72"
   height="72"
   x="0"
   y="0"
   version="1.1"
   sodipodi:docname="QGCLogoFull.svg"
   inkscape:version="1.4 (e7c3feb1, 2024-10-09)"
   xmlns:inkscape="http://www.inkscape.org/namespaces/inkscape"
   xmlns:sodipodi="http://sodipodi.sourceforge.net/DTD/sodipodi-0.dtd"
   xmlns="http://www.w3.org/2000/svg"
   xmlns:svg="http://www.w3.org/2000/svg"><defs
   id="defs1"><linearGradient
     x1="0"
     y1="0"
     x2="1"
     y2="0"
     gradientUnits="userSpaceOnUse"
     gradientTransform="matrix(10.008376,10.008376,10.008376,-10.008376,397.14148,295.25781)"
     spreadMethod="pad"
     id="linearGradient16"><stop
       style="stop-opacity:1;stop-color:#e71e73 icc-color(Coated FOGRA39 (ISO 12647-2:2004), 0, 0.94999695, 0.19999695, 0);"
       offset="0"
       id="stop14" /><stop
       style="stop-opacity:1;stop-color:#951b81 icc-color(Coated FOGRA39 (ISO 12647-2:2004), 0.5, 1, 0, 0);"
       offset="0.592378"
       id="stop15" /><stop
       style="stop-opacity:1;stop-color:#a3195b icc-color(Coated FOGRA39 (ISO 12647-2:2004), 0.34999084, 1, 0.34999084, 0.09999084);"
       offset="1"
       id="stop16" /></linearGradient><linearGradient
     x1="0.013010001"
     y1="0.17023464"
     x2="1.0088344"
     y2="-0.11084665"
     gradientUnits="userSpaceOnUse"
     gradientTransform="matrix(17.203999,-20.833939,-20.833939,-17.203999,386.88248,305.56219)"
     spreadMethod="pad"
     id="linearGradient22"><stop
       style="stop-opacity:1;stop-color:#e71e73 icc-color(Coated FOGRA39 (ISO 12647-2:2004), 0, 0.94999695, 0.19999695, 0);"
       offset="0"
       id="stop20" /><stop
       style="stop-opacity:1;stop-color:#951b81 icc-color(Coated FOGRA39 (ISO 12647-2:2004), 0.5, 1, 0, 0);"
       offset="0.592378"
       id="stop21" /><stop
       style="stop-opacity:1;stop-color:#a3195b icc-color(Coated FOGRA39 (ISO 12647-2:2004), 0.34999084, 1, 0.34999084, 0.09999084);"
       offset="1"
       id="stop22" /></linearGradient></defs><sodipodi:namedview
   id="namedview1"
   pagecolor="#ffffff"
   bordercolor="#666666"
   borderopacity="1.0"
   inkscape:showpageshadow="2"
   inkscape:pageopacity="0.0"
   inkscape:pagecheckerboard="0"
   inkscape:deskcolor="#d1d1d1"
   inkscape:zoom="7.5609655"
   inkscape:cx="56.474269"
   inkscape:cy="39.87586"
   inkscape:window-width="1512"
   inkscape:window-height="920"
   inkscape:window-x="0"
   inkscape:window-y="34"
   inkscape:window-maximized="1"
   inkscape:current-layer="g10" />
    <style
   id="style873"
   type="text/css">
        .st2{fill:#5ecbf1}
    </style>
    <path
   id="rect875"
   d="M10.555 10.213h50.924v50.582H10.555z"
   style="fill:#fff" />
    <path
   id="path877"
   d="M50.296 1.8H21.704C10.726 1.8 1.8 10.726 1.8 21.704v28.591C1.8 61.274 10.726 70.2 21.704 70.2h28.591c10.978 0 19.904-8.926 19.904-19.904V21.704C70.2 10.726 61.274 1.8 50.296 1.8"
   style="fill:#b3b3b3" />
    
    
    
    
    
<g
   id="g10"
   style="display:inline"
   transform="matrix(0.38494179,0,0,0.38494179,-157.2187,-120.5258)"><path
     d="m 423.65999,461.13601 29.808,-23.728 4.80533,-4.56533 43.90267,-81.168 z"
     id="path10"
     style="stroke-width:1.33333;fill:#e6007e;fill-opacity:1" /><path
     d="m 461.37999,431.28134 43.064,-36.79333 -0.008,-42.81333 z"
     id="path14"
     style="stroke-width:1.33333;fill:#951b81;fill-opacity:1"
     sodipodi:nodetypes="cccc" /><path
     id="path16"
     d="m 380.021,316.134 0.199,-0.171 5.571,-4.788 3.418,-2.936 48.982,-42.091 -58.17,82.096 z"
     style="fill:#a3195b;stroke:none;fill-opacity:1"
     transform="matrix(1.3333333,0,0,-1.3333333,0,816)" /><path
     d="m 496.36399,404.41468 -32.71467,27.856 -36.94266,29.00666 91.30799,-54.4 -12.31733,-10.52133 z"
     id="path20"
     style="stroke-width:1.33333;fill:#662383;fill-opacity:1" /><path
     id="path22"
     d="m 377.763,298.58 18.676,-13.622 15.4,2.05 -22.412,18.943 z"
     style="fill:#e6007e;stroke:none;fill-opacity:1"
     clip-path="none"
     transform="matrix(1.3333333,0,0,-1.3333333,0,816)" /></g></svg>
