<?xml version="1.0" encoding="UTF-8" standalone="no"?>
<svg
   xml:space="preserve"
   id="Layer_1"
   width="72"
   height="72"
   x="0"
   y="0"
   version="1.1"
   sodipodi:docname="custom_qgroundcontrol.svg"
   inkscape:version="1.4 (e7c3feb1, 2024-10-09)"
   xmlns:inkscape="http://www.inkscape.org/namespaces/inkscape"
   xmlns:sodipodi="http://sodipodi.sourceforge.net/DTD/sodipodi-0.dtd"
   xmlns="http://www.w3.org/2000/svg"
   xmlns:svg="http://www.w3.org/2000/svg"><defs
   id="defs1"><clipPath
     clipPathUnits="userSpaceOnUse"
     id="clipPath10"><path
       d="m 317.745,266.148 22.356,17.796 3.604,3.424 32.927,60.876 z"
       id="path10" /></clipPath><clipPath
     clipPathUnits="userSpaceOnUse"
     id="clipPath14"><path
       d="m 346.035,288.539 32.298,27.595 -0.006,32.11 z"
       id="path14" /></clipPath><linearGradient
     x1="0"
     y1="0"
     x2="1"
     y2="0"
     gradientUnits="userSpaceOnUse"
     gradientTransform="matrix(10.008376,10.008376,10.008376,-10.008376,397.14148,295.25781)"
     spreadMethod="pad"
     id="linearGradient16"><stop
       style="stop-opacity:1;stop-color:#e71e73 icc-color(Coated FOGRA39 (ISO 12647-2:2004), 0, 0.94999695, 0.19999695, 0);"
       offset="0"
       id="stop14" /><stop
       style="stop-opacity:1;stop-color:#951b81 icc-color(Coated FOGRA39 (ISO 12647-2:2004), 0.5, 1, 0, 0);"
       offset="0.592378"
       id="stop15" /><stop
       style="stop-opacity:1;stop-color:#a3195b icc-color(Coated FOGRA39 (ISO 12647-2:2004), 0.34999084, 1, 0.34999084, 0.09999084);"
       offset="1"
       id="stop16" /></linearGradient><clipPath
     clipPathUnits="userSpaceOnUse"
     id="clipPath20"><path
       d="m 372.273,308.689 -24.536,-20.892 -27.707,-21.755 68.481,40.8 -9.238,7.891 z"
       id="path20" /></clipPath><linearGradient
     x1="0"
     y1="0"
     x2="1"
     y2="0"
     gradientUnits="userSpaceOnUse"
     gradientTransform="matrix(17.203999,-20.833939,-20.833939,-17.203999,386.88248,305.56219)"
     spreadMethod="pad"
     id="linearGradient22"><stop
       style="stop-opacity:1;stop-color:#e71e73 icc-color(Coated FOGRA39 (ISO 12647-2:2004), 0, 0.94999695, 0.19999695, 0);"
       offset="0"
       id="stop20" /><stop
       style="stop-opacity:1;stop-color:#951b81 icc-color(Coated FOGRA39 (ISO 12647-2:2004), 0.5, 1, 0, 0);"
       offset="0.592378"
       id="stop21" /><stop
       style="stop-opacity:1;stop-color:#a3195b icc-color(Coated FOGRA39 (ISO 12647-2:2004), 0.34999084, 1, 0.34999084, 0.09999084);"
       offset="1"
       id="stop22" /></linearGradient></defs><sodipodi:namedview
   id="namedview1"
   pagecolor="#ffffff"
   bordercolor="#666666"
   borderopacity="1.0"
   inkscape:showpageshadow="2"
   inkscape:pageopacity="0.0"
   inkscape:pagecheckerboard="0"
   inkscape:deskcolor="#d1d1d1"
   inkscape:zoom="4.2954141"
   inkscape:cx="30.032029"
   inkscape:cy="37.365431"
   inkscape:window-width="1512"
   inkscape:window-height="920"
   inkscape:window-x="0"
   inkscape:window-y="34"
   inkscape:window-maximized="1"
   inkscape:current-layer="Layer_1" />
    <style
   id="style873"
   type="text/css">
        .st2{fill:#5ecbf1}
    </style>
    <path
   id="rect875"
   d="M10.555 10.213h50.924v50.582H10.555z"
   style="fill:#fff" />
    <path
   id="path877"
   d="M50.296 1.8H21.704C10.726 1.8 1.8 10.726 1.8 21.704v28.591C1.8 61.274 10.726 70.2 21.704 70.2h28.591c10.978 0 19.904-8.926 19.904-19.904V21.704C70.2 10.726 61.274 1.8 50.296 1.8"
   style="fill:#b3b3b3" />
    
    
    
    
    
<g
   id="g10"
   style="display:inline"
   transform="matrix(0.38494179,0,0,0.38494179,-157.2187,-120.5258)"><path
     id="path9"
     d="m 317.745,266.148 h 58.712 v 81.771 h -58.712 z"
     style="fill:#e6007e;fill-opacity:1;fill-rule:nonzero;stroke:none"
     transform="matrix(1.3333333,0,0,-1.3333333,0,816)"
     clip-path="url(#clipPath10)" /><path
     id="path13"
     d="m 346.035,288.539 h 32.781 v 59.706 h -32.781 z"
     style="fill:#951b81;fill-opacity:1;fill-rule:nonzero;stroke:none"
     transform="matrix(1.3333333,0,0,-1.3333333,0,816)"
     clip-path="url(#clipPath14)" /><path
     id="path16"
     d="m 380.021,316.134 0.199,-0.171 5.571,-4.788 3.418,-2.936 48.982,-42.091 -58.17,82.096 z"
     style="fill:url(#linearGradient16);stroke:none"
     transform="matrix(1.3333333,0,0,-1.3333333,0,816)" /><path
     id="path19"
     d="m 320.03,266.042 h 68.962 v 49.646 H 320.03 Z"
     style="fill:#662383;fill-opacity:1;fill-rule:nonzero;stroke:none"
     transform="matrix(1.3333333,0,0,-1.3333333,0,816)"
     clip-path="url(#clipPath20)" /><path
     id="path22"
     d="m 377.763,298.58 18.676,-13.622 15.4,2.05 -22.412,18.943 z"
     style="fill:url(#linearGradient22);stroke:none"
     transform="matrix(1.3333333,0,0,-1.3333333,0,816)" /></g></svg>
